<svg width="2084" height="2084" viewBox="0 0 2084 2084" fill="none" xmlns="http://www.w3.org/2000/svg">
<rect width="2084" height="2084" rx="1000" fill="#E9E6DF"/>
<path d="M487.347 614.819V1150.21H1257.58V614.819L869.082 433L487.347 614.819Z" stroke="#B7835C" stroke-width="10"/>
<path d="M790.932 614.819V1150.21H1561.16V614.819L1172.67 433L790.932 614.819Z" stroke="#B7835C" stroke-width="10"/>
<path d="M764.92 1288.71C767.868 1284.02 769.342 1280.07 769.342 1276.86C769.342 1272.03 765.724 1269.62 758.488 1269.62C758.22 1269.62 758.086 1269.22 758.086 1268.41C758.086 1267.61 758.22 1267.21 758.488 1267.21L767.935 1267.41C773.027 1267.68 777.717 1267.81 782.005 1267.81C784.283 1267.81 787.03 1267.68 790.246 1267.41L797.683 1267.21C797.951 1267.21 798.085 1267.61 798.085 1268.41C798.085 1269.22 797.951 1269.62 797.683 1269.62C792.859 1269.62 787.968 1271.43 783.01 1275.05C778.052 1278.53 773.63 1283.35 769.744 1289.52L738.187 1337.96L734.77 1334.94L764.92 1288.71ZM696.379 1285.1C692.627 1279.33 689.076 1275.31 685.726 1273.04C682.376 1270.76 678.49 1269.62 674.068 1269.62C673.666 1269.62 673.465 1269.22 673.465 1268.41C673.465 1267.61 673.666 1267.21 674.068 1267.21C675.676 1267.21 678.088 1267.34 681.304 1267.61L688.339 1267.81C692.895 1267.81 698.657 1267.68 705.625 1267.41L716.479 1267.21C716.747 1267.21 716.881 1267.61 716.881 1268.41C716.881 1269.22 716.747 1269.62 716.479 1269.62C709.511 1269.62 706.027 1271.03 706.027 1273.84C706.027 1275.31 706.697 1276.92 708.037 1278.66L742.408 1329.12L732.559 1338.16L696.379 1285.1ZM742.81 1328.71V1376.55C742.81 1380.71 743.212 1383.72 744.016 1385.6C744.82 1387.47 746.361 1388.75 748.639 1389.42C751.051 1390.09 754.803 1390.42 759.895 1390.42C760.297 1390.42 760.498 1390.82 760.498 1391.63C760.498 1392.43 760.297 1392.83 759.895 1392.83C755.741 1392.83 752.525 1392.77 750.247 1392.63L736.177 1392.43L722.308 1392.63C719.896 1392.77 716.613 1392.83 712.459 1392.83C712.057 1392.83 711.856 1392.43 711.856 1391.63C711.856 1390.82 712.057 1390.42 712.459 1390.42C717.551 1390.42 721.236 1390.09 723.514 1389.42C725.926 1388.75 727.534 1387.47 728.338 1385.6C729.276 1383.59 729.745 1380.57 729.745 1376.55V1330.52L742.81 1328.71ZM992.125 1289.32C992.125 1276.19 986.296 1269.62 974.638 1269.62C974.236 1269.62 974.035 1269.22 974.035 1268.41C974.035 1267.61 974.236 1267.21 974.638 1267.21L983.281 1267.41C988.105 1267.68 991.924 1267.81 994.738 1267.81C997.016 1267.81 1000.3 1267.68 1004.59 1267.41L1013.03 1267.21C1013.3 1267.21 1013.43 1267.61 1013.43 1268.41C1013.43 1269.22 1013.3 1269.62 1013.03 1269.62C1002.31 1269.62 996.949 1276.19 996.949 1289.32V1346.4C996.949 1361.81 992.661 1373.87 984.085 1382.58C975.509 1391.16 963.985 1395.45 949.513 1395.45C939.597 1395.45 930.887 1393.5 923.383 1389.62C916.013 1385.73 910.251 1380.24 906.097 1373.13C902.077 1365.9 900.067 1357.46 900.067 1347.81V1283.49C900.067 1279.47 899.665 1276.52 898.861 1274.64C898.057 1272.77 896.449 1271.5 894.037 1270.83C891.759 1270.02 888.074 1269.62 882.982 1269.62C882.714 1269.62 882.58 1269.22 882.58 1268.41C882.58 1267.61 882.714 1267.21 882.982 1267.21L892.831 1267.41C898.459 1267.68 903.015 1267.81 906.499 1267.81C910.117 1267.81 914.874 1267.68 920.77 1267.41L930.016 1267.21C930.418 1267.21 930.619 1267.61 930.619 1268.41C930.619 1269.22 930.418 1269.62 930.016 1269.62C925.058 1269.62 921.373 1270.02 918.961 1270.83C916.683 1271.63 915.142 1273.04 914.338 1275.05C913.534 1276.92 913.132 1279.87 913.132 1283.89V1340.77C913.132 1356.59 916.683 1368.65 923.785 1376.95C930.887 1385.26 940.937 1389.42 953.935 1389.42C965.995 1389.42 975.375 1385.66 982.075 1378.16C988.775 1370.52 992.125 1360 992.125 1346.6V1289.32ZM1158.8 1393.64C1154.92 1393.64 1150.43 1393.44 1145.34 1393.03C1143.46 1392.9 1141.05 1392.77 1138.1 1392.63C1135.29 1392.5 1132.14 1392.43 1128.65 1392.43L1114.98 1392.63C1112.57 1392.77 1109.22 1392.83 1104.93 1392.83C1104.67 1392.83 1104.53 1392.43 1104.53 1391.63C1104.53 1390.82 1104.67 1390.42 1104.93 1390.42C1110.03 1390.42 1113.71 1390.09 1115.99 1389.42C1118.4 1388.75 1120.01 1387.47 1120.81 1385.6C1121.75 1383.59 1122.22 1380.57 1122.22 1376.55V1283.49C1122.22 1279.47 1121.82 1276.52 1121.01 1274.64C1120.21 1272.77 1118.6 1271.5 1116.19 1270.83C1113.91 1270.02 1110.23 1269.62 1105.14 1269.62C1104.87 1269.62 1104.73 1269.22 1104.73 1268.41C1104.73 1267.61 1104.87 1267.21 1105.14 1267.21L1115.19 1267.41C1120.81 1267.68 1125.3 1267.81 1128.65 1267.81C1133.74 1267.81 1138.77 1267.61 1143.73 1267.21C1149.62 1266.94 1153.71 1266.81 1155.99 1266.81C1169.92 1266.81 1182.25 1269.49 1192.97 1274.85C1203.69 1280.21 1212 1287.51 1217.9 1296.75C1223.93 1306 1226.94 1316.39 1226.94 1327.91C1226.94 1340.91 1223.86 1352.43 1217.7 1362.48C1211.67 1372.4 1203.42 1380.1 1192.97 1385.6C1182.52 1390.96 1171.13 1393.64 1158.8 1393.64ZM1156.79 1390.62C1167.51 1390.62 1177.03 1388.41 1185.33 1383.99C1193.64 1379.43 1200.07 1372.8 1204.63 1364.09C1209.32 1355.25 1211.67 1344.66 1211.67 1332.33C1211.67 1320.67 1209.45 1310.09 1205.03 1300.57C1200.61 1291.06 1194.31 1283.56 1186.14 1278.06C1177.96 1272.57 1168.52 1269.82 1157.8 1269.82C1152.04 1269.82 1147.55 1270.16 1144.33 1270.83C1141.25 1271.5 1138.97 1272.84 1137.5 1274.85C1136.02 1276.86 1135.29 1279.87 1135.29 1283.89V1374.34C1135.29 1378.36 1135.82 1381.51 1136.89 1383.79C1138.1 1386.07 1140.24 1387.81 1143.33 1389.01C1146.54 1390.09 1151.03 1390.62 1156.79 1390.62ZM1357.27 1376.55C1357.27 1380.71 1357.67 1383.72 1358.48 1385.6C1359.28 1387.47 1360.82 1388.75 1363.1 1389.42C1365.51 1390.09 1369.26 1390.42 1374.36 1390.42C1374.76 1390.42 1374.96 1390.82 1374.96 1391.63C1374.96 1392.43 1374.76 1392.83 1374.36 1392.83C1370.34 1392.83 1367.12 1392.77 1364.71 1392.63L1350.44 1392.43L1336.57 1392.63C1334.16 1392.77 1330.87 1392.83 1326.72 1392.83C1326.32 1392.83 1326.12 1392.43 1326.12 1391.63C1326.12 1390.82 1326.32 1390.42 1326.72 1390.42C1331.81 1390.42 1335.5 1390.09 1337.77 1389.42C1340.19 1388.75 1341.79 1387.47 1342.6 1385.6C1343.54 1383.59 1344.01 1380.57 1344.01 1376.55V1283.49C1344.01 1279.47 1343.54 1276.52 1342.6 1274.64C1341.79 1272.77 1340.19 1271.5 1337.77 1270.83C1335.5 1270.02 1331.81 1269.62 1326.72 1269.62C1326.32 1269.62 1326.12 1269.22 1326.12 1268.41C1326.12 1267.61 1326.32 1267.21 1326.72 1267.21L1336.57 1267.41C1342.2 1267.68 1346.82 1267.81 1350.44 1267.81C1354.46 1267.81 1359.28 1267.68 1364.91 1267.41L1374.36 1267.21C1374.76 1267.21 1374.96 1267.61 1374.96 1268.41C1374.96 1269.22 1374.76 1269.62 1374.36 1269.62C1369.4 1269.62 1365.71 1270.02 1363.3 1270.83C1360.89 1271.63 1359.28 1273.04 1358.48 1275.05C1357.67 1276.92 1357.27 1279.87 1357.27 1283.89V1376.55Z" fill="black"/>
<path d="M769.079 1513V1450H773.669V1513H769.079ZM813.622 1513V1450H817.492L862.402 1507.33H860.332V1450H864.922V1513H861.142L816.142 1455.67H818.212V1513H813.622ZM916.983 1513V1454.14H894.303V1450H944.253V1454.14H921.573V1513H916.983ZM977.686 1478.98H1011.8V1483.03H977.686V1478.98ZM978.226 1508.86H1017.11V1513H973.636V1450H1015.76V1454.14H978.226V1508.86ZM1051.84 1513V1450H1074.43C1079.71 1450 1084.24 1450.84 1088.02 1452.52C1091.8 1454.2 1094.71 1456.63 1096.75 1459.81C1098.79 1462.93 1099.81 1466.74 1099.81 1471.24C1099.81 1475.62 1098.79 1479.4 1096.75 1482.58C1094.71 1485.7 1091.8 1488.13 1088.02 1489.87C1084.24 1491.55 1079.71 1492.39 1074.43 1492.39H1054.36L1056.43 1490.23V1513H1051.84ZM1095.58 1513L1079.2 1490.14H1084.42L1100.8 1513H1095.58ZM1056.43 1490.5L1054.36 1488.34H1074.43C1081.21 1488.34 1086.34 1486.84 1089.82 1483.84C1093.36 1480.84 1095.13 1476.64 1095.13 1471.24C1095.13 1465.78 1093.36 1461.58 1089.82 1458.64C1086.34 1455.64 1081.21 1454.14 1074.43 1454.14H1054.36L1056.43 1451.89V1490.5ZM1134.62 1513V1450H1139.21V1513H1134.62ZM1205.89 1513.45C1201.21 1513.45 1196.86 1512.67 1192.84 1511.11C1188.88 1509.49 1185.4 1507.24 1182.4 1504.36C1179.46 1501.42 1177.18 1498.03 1175.56 1494.19C1173.94 1490.29 1173.13 1486.06 1173.13 1481.5C1173.13 1476.94 1173.94 1472.74 1175.56 1468.9C1177.18 1465 1179.46 1461.61 1182.4 1458.73C1185.4 1455.79 1188.88 1453.54 1192.84 1451.98C1196.86 1450.36 1201.21 1449.55 1205.89 1449.55C1210.57 1449.55 1214.89 1450.36 1218.85 1451.98C1222.87 1453.54 1226.35 1455.76 1229.29 1458.64C1232.23 1461.52 1234.51 1464.91 1236.13 1468.81C1237.81 1472.65 1238.65 1476.88 1238.65 1481.5C1238.65 1486.12 1237.81 1490.38 1236.13 1494.28C1234.51 1498.12 1232.23 1501.48 1229.29 1504.36C1226.35 1507.24 1222.87 1509.49 1218.85 1511.11C1214.89 1512.67 1210.57 1513.45 1205.89 1513.45ZM1205.89 1509.22C1209.91 1509.22 1213.63 1508.53 1217.05 1507.15C1220.47 1505.77 1223.44 1503.82 1225.96 1501.3C1228.48 1498.78 1230.43 1495.84 1231.81 1492.48C1233.25 1489.12 1233.97 1485.46 1233.97 1481.5C1233.97 1477.48 1233.25 1473.82 1231.81 1470.52C1230.43 1467.16 1228.48 1464.22 1225.96 1461.7C1223.44 1459.18 1220.47 1457.23 1217.05 1455.85C1213.63 1454.47 1209.91 1453.78 1205.89 1453.78C1201.87 1453.78 1198.15 1454.47 1194.73 1455.85C1191.31 1457.23 1188.31 1459.18 1185.73 1461.7C1183.21 1464.22 1181.23 1467.16 1179.79 1470.52C1178.41 1473.82 1177.72 1477.48 1177.72 1481.5C1177.72 1485.46 1178.41 1489.12 1179.79 1492.48C1181.23 1495.84 1183.21 1498.78 1185.73 1501.3C1188.31 1503.82 1191.31 1505.77 1194.73 1507.15C1198.15 1508.53 1201.87 1509.22 1205.89 1509.22ZM1272.57 1513V1450H1295.16C1300.44 1450 1304.97 1450.84 1308.75 1452.52C1312.53 1454.2 1315.44 1456.63 1317.48 1459.81C1319.52 1462.93 1320.54 1466.74 1320.54 1471.24C1320.54 1475.62 1319.52 1479.4 1317.48 1482.58C1315.44 1485.7 1312.53 1488.13 1308.75 1489.87C1304.97 1491.55 1300.44 1492.39 1295.16 1492.39H1275.09L1277.16 1490.23V1513H1272.57ZM1316.31 1513L1299.93 1490.14H1305.15L1321.53 1513H1316.31ZM1277.16 1490.5L1275.09 1488.34H1295.16C1301.94 1488.34 1307.07 1486.84 1310.55 1483.84C1314.09 1480.84 1315.86 1476.64 1315.86 1471.24C1315.86 1465.78 1314.09 1461.58 1310.55 1458.64C1307.07 1455.64 1301.94 1454.14 1295.16 1454.14H1275.09L1277.16 1451.89V1490.5Z" fill="black"/>
<path d="M97.7945 849.284H124.324V852.434H97.7945V849.284ZM98.2145 872.524H128.454V875.744H94.6445V826.744H127.404V829.964H98.2145V872.524ZM168.351 876.094C164.711 876.094 161.257 875.487 157.991 874.274C154.771 873.014 152.274 871.404 150.501 869.444L152.111 866.784C153.791 868.51 156.077 869.98 158.971 871.194C161.911 872.36 165.014 872.944 168.281 872.944C171.547 872.944 174.207 872.524 176.261 871.684C178.361 870.797 179.901 869.63 180.881 868.184C181.907 866.737 182.421 865.127 182.421 863.354C182.421 861.254 181.861 859.574 180.741 858.314C179.621 857.054 178.151 856.05 176.331 855.304C174.511 854.557 172.527 853.927 170.381 853.414C168.234 852.9 166.064 852.364 163.871 851.804C161.677 851.197 159.671 850.427 157.851 849.494C156.031 848.56 154.561 847.3 153.441 845.714C152.367 844.08 151.831 841.98 151.831 839.414C151.831 837.08 152.437 834.934 153.651 832.974C154.864 831.014 156.754 829.427 159.321 828.214C161.887 827 165.177 826.394 169.191 826.394C171.897 826.394 174.557 826.79 177.171 827.584C179.831 828.377 182.094 829.45 183.961 830.804L182.631 833.674C180.577 832.274 178.361 831.247 175.981 830.594C173.647 829.894 171.384 829.544 169.191 829.544C166.064 829.544 163.474 829.987 161.421 830.874C159.367 831.76 157.851 832.95 156.871 834.444C155.891 835.89 155.401 837.524 155.401 839.344C155.401 841.444 155.937 843.124 157.011 844.384C158.131 845.644 159.601 846.647 161.421 847.394C163.241 848.14 165.247 848.77 167.441 849.284C169.634 849.797 171.804 850.357 173.951 850.964C176.097 851.524 178.081 852.27 179.901 853.204C181.721 854.137 183.191 855.397 184.311 856.984C185.431 858.57 185.991 860.624 185.991 863.144C185.991 865.43 185.361 867.577 184.101 869.584C182.841 871.544 180.904 873.13 178.291 874.344C175.724 875.51 172.411 876.094 168.351 876.094ZM220.823 875.744V829.964H203.183V826.744H242.033V829.964H224.393V875.744H220.823Z" fill="black"/>
<path d="M1791.8 875.744V873.224L1812.52 852.644C1814.48 850.684 1815.95 848.98 1816.93 847.534C1817.91 846.04 1818.57 844.664 1818.89 843.404C1819.27 842.144 1819.45 840.907 1819.45 839.694C1819.45 836.614 1818.4 834.187 1816.3 832.414C1814.2 830.594 1811.12 829.684 1807.06 829.684C1803.98 829.684 1801.28 830.15 1798.94 831.084C1796.66 832.017 1794.67 833.44 1792.99 835.354L1790.47 833.114C1792.34 830.967 1794.7 829.31 1797.54 828.144C1800.44 826.977 1803.7 826.394 1807.34 826.394C1810.56 826.394 1813.34 826.93 1815.67 828.004C1818.05 829.03 1819.87 830.524 1821.13 832.484C1822.44 834.397 1823.09 836.684 1823.09 839.344C1823.09 840.93 1822.86 842.494 1822.39 844.034C1821.97 845.527 1821.18 847.114 1820.01 848.794C1818.89 850.474 1817.26 852.387 1815.11 854.534L1795.65 873.924L1794.46 872.524H1825.47V875.744H1791.8ZM1865.2 876.094C1861.47 876.094 1858.15 875.09 1855.26 873.084C1852.37 871.077 1850.1 868.23 1848.47 864.544C1846.84 860.81 1846.02 856.377 1846.02 851.244C1846.02 846.11 1846.84 841.7 1848.47 838.014C1850.1 834.28 1852.37 831.41 1855.26 829.404C1858.15 827.397 1861.47 826.394 1865.2 826.394C1868.98 826.394 1872.29 827.397 1875.14 829.404C1878.03 831.41 1880.3 834.28 1881.93 838.014C1883.56 841.7 1884.38 846.11 1884.38 851.244C1884.38 856.377 1883.56 860.81 1881.93 864.544C1880.3 868.23 1878.03 871.077 1875.14 873.084C1872.29 875.09 1868.98 876.094 1865.2 876.094ZM1865.2 872.804C1868.33 872.804 1871.06 871.964 1873.39 870.284C1875.72 868.557 1877.54 866.084 1878.85 862.864C1880.16 859.644 1880.81 855.77 1880.81 851.244C1880.81 846.67 1880.16 842.797 1878.85 839.624C1877.54 836.404 1875.72 833.954 1873.39 832.274C1871.06 830.547 1868.33 829.684 1865.2 829.684C1862.12 829.684 1859.39 830.547 1857.01 832.274C1854.68 833.954 1852.86 836.404 1851.55 839.624C1850.24 842.797 1849.59 846.67 1849.59 851.244C1849.59 855.77 1850.24 859.644 1851.55 862.864C1852.86 866.084 1854.68 868.557 1857.01 870.284C1859.39 871.964 1862.12 872.804 1865.2 872.804ZM1914.85 875.744V828.284L1916.46 829.964H1902.88V826.744H1918.42V875.744H1914.85ZM1963.95 876.094C1960.22 876.094 1956.91 875.09 1954.01 873.084C1951.12 871.077 1948.86 868.23 1947.22 864.544C1945.59 860.81 1944.77 856.377 1944.77 851.244C1944.77 846.11 1945.59 841.7 1947.22 838.014C1948.86 834.28 1951.12 831.41 1954.01 829.404C1956.91 827.397 1960.22 826.394 1963.95 826.394C1967.73 826.394 1971.05 827.397 1973.89 829.404C1976.79 831.41 1979.05 834.28 1980.68 838.014C1982.32 841.7 1983.13 846.11 1983.13 851.244C1983.13 856.377 1982.32 860.81 1980.68 864.544C1979.05 868.23 1976.79 871.077 1973.89 873.084C1971.05 875.09 1967.73 876.094 1963.95 876.094ZM1963.95 872.804C1967.08 872.804 1969.81 871.964 1972.14 870.284C1974.48 868.557 1976.3 866.084 1977.6 862.864C1978.91 859.644 1979.56 855.77 1979.56 851.244C1979.56 846.67 1978.91 842.797 1977.6 839.624C1976.3 836.404 1974.48 833.954 1972.14 832.274C1969.81 830.547 1967.08 829.684 1963.95 829.684C1960.87 829.684 1958.14 830.547 1955.76 832.274C1953.43 833.954 1951.61 836.404 1950.3 839.624C1949 842.797 1948.34 846.67 1948.34 851.244C1948.34 855.77 1949 859.644 1950.3 862.864C1951.61 866.084 1953.43 868.557 1955.76 870.284C1958.14 871.964 1960.87 872.804 1963.95 872.804Z" fill="black"/>
</svg>
